<?xml version="1.0" encoding="utf-8"?>
<!-- Generator: Adobe Illustrator 21.0.0, SVG Export Plug-In . SVG Version: 6.00 Build 0)  -->
<svg version="1.1" id="Layer_1" xmlns="http://www.w3.org/2000/svg" xmlns:xlink="http://www.w3.org/1999/xlink" x="0px" y="0px"
	 viewBox="0 0 147.2 58.4" style="enable-background:new 0 0 147.2 58.4;" xml:space="preserve">
<style type="text/css">
	.st0{fill:#FFFFFF;}
</style>
<g>
	<g>
		<path class="st0" d="M70.9,39.2c0,7.9-5.9,13.4-14.3,13.4H45.4V25.8h11.4C65.1,25.8,70.9,31.2,70.9,39.2z M64.7,39.2
			c0-4.9-3.4-8.3-8-8.3h-5.2v16.6h5.5C61.4,47.5,64.7,44.1,64.7,39.2z"/>
		<path class="st0" d="M80.9,25.8v26.8h-6.1V25.8H80.9z"/>
		<path class="st0" d="M104.8,39h5.2v10.3c-2.8,2.1-7.2,3.5-10.9,3.5c-8.1,0-14.3-5.9-14.3-13.7c0-7.7,6.3-13.6,14.6-13.6
			c4,0,8,1.5,10.8,3.9l-3.4,4.3c-2-1.8-4.7-3-7.4-3c-4.7,0-8.4,3.6-8.4,8.3c0,4.7,3.7,8.4,8.5,8.4c1.6,0,3.5-0.6,5.2-1.5V39z"/>
		<path class="st0" d="M121.4,25.8v26.8h-6.1V25.8H121.4z"/>
		<path class="st0" d="M147.1,25.8v5.1h-8.2v21.7h-6.1V30.9h-8.2v-5.1H147.1z"/>
	</g>
	<g>
		<g>
			<path class="st0" d="M30.6,57.3H4.4V31.1h26.3V57.3z M9.4,52.3h16.3V36.1H9.4V52.3z"/>
		</g>
		<g>
			<path class="st0" d="M10.2,35.2L0.4,10.9l24.3-9.8l9.8,24.3L10.2,35.2z M6.9,13.7L13,28.7l15.1-6.1L22,7.6L6.9,13.7z"/>
		</g>
	</g>
</g>
</svg>
